<svg width="48" height="48" viewBox="0 0 48 48" fill="none" xmlns="http://www.w3.org/2000/svg">
<path d="M32.546 38.9C33.8087 39.392 34.974 39.7693 36.042 40.032L36.056 40.034C37.964 40.504 39.478 40.598 40.556 40.406C40.8573 40.3513 41.116 40.2787 41.332 40.188C41.858 39.968 42.148 39.652 42.3 39.328C42.476 38.954 42.558 38.412 42.456 37.674C42.3762 37.1266 42.2354 36.59 42.036 36.074C41.7646 35.3547 41.4383 34.6573 41.06 33.988L41.04 33.948L40.856 33.628C40.2405 32.5828 39.5577 31.5787 38.812 30.622L38.804 30.61C36.01 26.988 31.824 22.992 26.794 19.42C21.46 15.632 16.3 13.114 12.306 12.058L11.966 11.97L11.946 11.966C10.038 11.496 8.522 11.402 7.446 11.594C7.08828 11.6506 6.74192 11.7641 6.42 11.93C6.10449 12.0908 5.85127 12.3518 5.7 12.672C5.474 13.152 5.416 13.888 5.652 14.894C5.724 15.2073 5.82866 15.5513 5.966 15.926C6.15652 16.4385 6.3769 16.9393 6.626 17.426L6.686 17.54L6.898 17.938C7.484 19.006 8.25 20.162 9.188 21.378L9.194 21.386C10.3022 22.8067 11.4929 24.161 12.76 25.442L13.624 26.31L13.672 25.694C13.872 23.122 13.972 21.836 14.846 21.378C15.718 20.918 16.786 21.592 18.918 22.938L19.47 23.286C20.076 23.668 20.378 23.86 20.728 23.906C21.076 23.956 21.432 23.854 22.142 23.652L22.79 23.468C25.292 22.758 26.544 22.402 27.214 23.072C27.884 23.74 27.528 24.992 26.816 27.494L26.632 28.142C26.432 28.852 26.33 29.208 26.378 29.558C26.426 29.908 26.618 30.21 26.998 30.816L27.346 31.368C28.692 33.5 29.366 34.568 28.906 35.438C28.446 36.308 27.162 36.412 24.59 36.612L23.924 36.664C23.194 36.722 22.828 36.75 22.508 36.918C22.188 37.086 21.952 37.374 21.478 37.95L21.046 38.476C19.374 40.504 18.538 41.52 17.586 41.388C16.634 41.258 16.194 40.068 15.316 37.692L15.088 37.076C14.838 36.4 14.714 36.062 14.468 35.816C14.222 35.572 13.884 35.446 13.208 35.196L12.594 34.97C10.214 34.09 9.026 33.65 8.896 32.698C8.766 31.746 9.78 30.91 11.81 29.24L12.088 29.01C11.5959 28.5261 11.1078 28.0381 10.624 27.546C9.05852 25.9748 7.60874 24.2924 6.286 22.512C5.80227 21.8502 5.34263 21.1711 4.908 20.476C4.59484 19.967 4.29934 19.4474 4.022 18.918L3.828 18.534C3.57329 18.0212 3.3463 17.4951 3.148 16.958C2.98294 16.5106 2.84469 16.0538 2.734 15.59C2.382 14.098 2.394 12.656 2.984 11.398C3.45122 10.4042 4.25852 9.61042 5.26 9.16C5.82 8.894 6.436 8.718 7.076 8.616C8.796 8.344 10.856 8.576 13.07 9.16C17.514 10.334 23.004 13.05 28.53 16.976C34.06 20.904 38.69 25.376 41.696 29.47C42.692 30.824 43.528 32.16 44.158 33.442C44.461 34.0621 44.7281 34.6992 44.958 35.35C45.57 37.154 45.758 39.02 45.014 40.604C44.47 41.764 43.562 42.516 42.474 42.962C42.0327 43.1407 41.5687 43.274 41.082 43.362C40.586 43.4497 40.0837 43.4965 39.58 43.502C39.288 43.506 38.988 43.4993 38.68 43.482C38.0474 43.4447 37.4177 43.3699 36.794 43.258C35.146 42.97 33.34 42.434 31.452 41.696C31.2664 41.6258 31.0966 41.5196 30.9524 41.3833C30.8082 41.2471 30.6925 41.0836 30.6119 40.9023C30.5313 40.7211 30.4875 40.5256 30.4829 40.3273C30.4784 40.129 30.5133 39.9317 30.5855 39.7469C30.6577 39.5622 30.7658 39.3935 30.9036 39.2509C31.0415 39.1082 31.2062 38.9942 31.3884 38.9157C31.5705 38.8371 31.7665 38.7954 31.9648 38.7931C32.1632 38.7907 32.36 38.8277 32.544 38.902" fill="black"/>
<path fill-rule="evenodd" clip-rule="evenodd" d="M39.33 4.818C39.4854 4.93917 39.6154 5.08978 39.7126 5.26121C39.8098 5.43264 39.8722 5.62155 39.8964 5.81713C39.9205 6.0127 39.9059 6.21112 39.8533 6.40104C39.8008 6.59097 39.7113 6.76867 39.59 6.924L39.368 7.208C39.6121 8.51704 40.2144 9.73276 41.108 10.72C41.3613 11.0161 41.4894 11.3991 41.4653 11.788C41.4411 12.1769 41.2666 12.5411 40.9787 12.8036C40.6907 13.0661 40.3119 13.2062 39.9225 13.1944C39.533 13.1825 39.1634 13.0195 38.892 12.74C37.9961 11.753 37.3024 10.5999 36.85 9.346C36.4151 9.6058 35.9547 9.82026 35.476 9.986C36.128 11.168 36.54 12.48 36.686 13.84C36.7284 14.2357 36.612 14.6321 36.3622 14.9419C36.1124 15.2517 35.7497 15.4496 35.354 15.492C34.9583 15.5344 34.562 15.4179 34.2521 15.1681C33.9423 14.9183 33.7444 14.5557 33.702 14.16C33.5653 12.8436 33.0685 11.5904 32.266 10.538L31.95 10.526C31.5565 10.507 31.1863 10.334 30.9193 10.0443C30.6523 9.75457 30.51 9.37147 30.5232 8.97774C30.5363 8.584 30.7038 8.21123 30.9895 7.93997C31.2752 7.66871 31.6561 7.52073 32.05 7.528L32.866 7.556C33.918 7.348 34.46 7.196 34.928 6.976C35.398 6.752 35.868 6.426 36.71 5.736L37.226 5.076C37.4707 4.76272 37.8297 4.55938 38.2242 4.51063C38.6187 4.46188 39.0164 4.57371 39.33 4.818Z" fill="black"/>
</svg>
